<svg width="160" height="43" viewBox="0 0 160 43" fill="none" xmlns="http://www.w3.org/2000/svg">
<g clip-path="url(#clip0)">
<path d="M15.3942 23.0644C22.1605 20.1434 26.7105 24.8989 35.7864 18.5231C38.8111 16.3983 41.6129 13.1854 42.0154 9.37295V6.71446C42.0171 2.16272 37.7072 0 33.6754 0H20.0099C18.3999 0 18.3999 2.44947 20.0099 2.44947H33.6754C36.2856 2.44947 39.5677 3.60339 39.5677 6.71446V8.16031L13.8067 8.14821C13.7065 8.14821 13.6133 8.16203 13.5165 8.18276C-5.07909 10.9311 -4.4624 38.8098 15.2042 40.3248L30.2344 40.0449C32.1432 40.9553 41.3832 45.2392 41.3832 39.5595C41.2899 37.1239 42.0586 34.4015 40.7717 32.18C39.7715 30.4543 38.089 29.7184 35.2474 31.3612C31.3141 33.6345 31.4298 33.5723 27.6848 33.6949C26.5015 33.7399 25.275 33.7882 24.1142 33.7969C12.5889 33.9178 9.54866 25.5899 15.3942 23.0644Z" fill="black"/>
<path d="M25.8645 19.7063C25.5656 17.6939 25.1856 13.6794 26.2912 10.5977H39.2623C38.4971 12.8761 36.6418 14.9369 34.3806 16.5244C31.0053 18.8962 28.3243 19.5664 25.8645 19.7063Z" fill="#FB5FF6"/>
<path d="M18.1689 19.7771C17.8666 17.6144 17.5557 13.5964 18.7597 10.5977H23.726C22.8105 13.8694 23.1024 17.611 23.3926 19.7132C21.6825 19.651 20.0017 19.5249 18.1689 19.7771Z" fill="#A0B0FE"/>
<path d="M13.4115 21.3474C12.1384 19.7892 9.34003 16.0097 8.7959 12.3026C10.2331 11.4545 11.9139 10.8568 13.8399 10.5959H16.1633C15.0837 14.0957 15.4654 18.2208 15.7747 20.3213C15.3376 20.4629 14.8902 20.627 14.4307 20.8257C14.068 20.9846 13.7259 21.1591 13.4115 21.3474Z" fill="#62CCFB"/>
<path d="M10.0604 27.2068C7.78191 26.1998 4.43936 24.3912 2.65149 21.8363C3.09889 18.8531 4.42554 16.0218 6.64009 13.9299C7.6178 17.713 10.2331 21.287 11.5442 22.9108C10.4939 24.151 9.99818 25.6573 10.0604 27.2068Z" fill="#00F8FF"/>
<path d="M10.8533 30.1606C9.13802 29.5111 5.33771 27.8925 2.52893 25.3359C2.82259 29.0654 4.46882 32.6757 7.46415 35.063C8.04975 34.9404 10.4267 34.379 13.137 32.9659C12.1299 32.1195 11.3664 31.1642 10.8533 30.1606Z" fill="#F8EBB4"/>
<path d="M38.6578 33.4065C38.3624 32.8935 37.7233 32.7536 36.4761 33.4739C32.2958 35.8905 31.7395 36.0063 27.7699 36.1358C26.597 36.1773 25.3792 36.2257 24.1355 36.2378C20.6893 36.2775 17.8839 35.6366 15.7057 34.595C13.8746 35.6971 12.1075 36.4381 10.7065 36.9201C12.0781 37.4556 13.619 37.7942 15.3326 37.8788L30.4837 37.592C30.7048 37.5886 30.9138 37.6473 31.0969 37.7475C31.1159 37.7561 38.9359 42.0574 38.9359 39.5561C38.9843 37.9496 39.4559 34.7833 38.6578 33.4065Z" fill="#FFB6B5"/>
<path d="M7.31909 35.0924L7.78549 37.7267C7.87532 37.7111 9.0275 37.4986 10.7031 36.9217C9.48872 36.4466 8.40909 35.8161 7.46247 35.063C7.37955 35.082 7.32427 35.0924 7.31909 35.0924Z" fill="black"/>
<path d="M16.4328 34.1423L14.9715 31.9001C14.3548 32.3026 13.7398 32.6533 13.1387 32.966C13.8642 33.5757 14.721 34.1268 15.7039 34.5949C15.9457 34.4515 16.1893 34.3013 16.4328 34.1423Z" fill="black"/>
<path d="M13.1386 32.9658C10.4283 34.3788 8.05141 34.9403 7.46582 35.0629C8.41072 35.8161 9.49208 36.4466 10.7064 36.9216C12.1074 36.4379 13.8745 35.6986 15.7056 34.5965C14.721 34.1266 13.8642 33.5773 13.1386 32.9658Z" fill="black"/>
<path d="M31.0381 16.2498C31.9626 16.2498 32.712 15.5004 32.712 14.576C32.712 13.6515 31.9626 12.9021 31.0381 12.9021C30.1137 12.9021 29.3643 13.6515 29.3643 14.576C29.3643 15.5004 30.1137 16.2498 31.0381 16.2498Z" fill="black"/>
<path d="M62.7292 30.6272C60.0414 30.6272 57.9028 29.8896 56.3136 28.4126C54.7244 26.9357 53.9315 24.8231 53.9315 22.073V16.9409C53.9315 14.1908 54.7261 12.0782 56.3136 10.6013C57.9028 9.12432 60.0414 8.38672 62.7292 8.38672C65.4171 8.38672 67.5556 9.12605 69.1448 10.6013C70.7341 12.0782 71.527 14.1908 71.527 16.9409V22.073C71.527 24.8231 70.7323 26.9357 69.1448 28.4126C67.5556 29.8896 65.4171 30.6272 62.7292 30.6272ZM62.7292 27.0238C64.2355 27.0238 65.4067 26.5868 66.2428 25.711C67.0771 24.8352 67.4952 23.664 67.4952 22.1974V16.82C67.4952 15.3534 67.0771 14.1822 66.2428 13.3064C65.4067 12.4306 64.2373 11.9936 62.7292 11.9936C61.2419 11.9936 60.0759 12.4323 59.2312 13.3064C58.3865 14.1822 57.9633 15.3534 57.9633 16.82V22.1974C57.9633 23.664 58.3865 24.8352 59.2312 25.711C60.0759 26.585 61.2419 27.0238 62.7292 27.0238Z" fill="black"/>
<path d="M74.5811 30.2004V15.0475H78.3693V16.7577H78.9186C79.1432 16.1462 79.5146 15.6988 80.0345 15.4138C80.5545 15.1287 81.159 14.9854 81.8517 14.9854H83.6845V18.4074H81.7896C80.8118 18.4074 80.0069 18.6665 79.3764 19.1864C78.7441 19.7064 78.4297 20.5044 78.4297 21.5841V30.1987H74.5811V30.2004Z" fill="black"/>
<path d="M88.6042 13.2753C87.9115 13.2753 87.3259 13.0507 86.8474 12.6033C86.3689 12.1559 86.1288 11.5652 86.1288 10.831C86.1288 10.0986 86.3672 9.50781 86.8474 9.05868C87.3259 8.61128 87.9115 8.38672 88.6042 8.38672C89.3159 8.38672 89.9066 8.61128 90.3765 9.05868C90.8446 9.50608 91.0796 10.0969 91.0796 10.831C91.0796 11.5652 90.8446 12.1559 90.3765 12.6033C89.9084 13.0507 89.3176 13.2753 88.6042 13.2753ZM86.6798 30.2005V15.0476H90.5285V30.2005H86.6798Z" fill="black"/>
<path d="M93.4617 22.6844V22.1956C93.4617 20.6064 93.7778 19.2469 94.4083 18.1172C95.0388 16.9874 95.8801 16.122 96.9286 15.5209C97.9771 14.9197 99.1224 14.6191 100.366 14.6191C101.752 14.6191 102.8 14.8644 103.514 15.3516C104.227 15.8404 104.745 16.35 105.072 16.8786H105.621V15.0475H109.409V32.89C109.409 33.9282 109.103 34.7591 108.492 35.3792C107.88 35.9993 107.067 36.3103 106.048 36.3103H95.906V32.9505H104.704C105.274 32.9505 105.559 32.6447 105.559 32.0332V28.093H105.009C104.806 28.4195 104.521 28.7494 104.154 29.0862C103.788 29.4231 103.299 29.7029 102.688 29.9258C102.076 30.1503 101.302 30.2626 100.366 30.2626C99.1241 30.2626 97.9771 29.962 96.9286 29.3609C95.8801 28.7598 95.0388 27.8943 94.4083 26.7646C93.7778 25.6331 93.4617 24.2737 93.4617 22.6844ZM101.467 26.9011C102.648 26.9011 103.636 26.5245 104.431 25.7713C105.225 25.0182 105.623 23.9593 105.623 22.5946V22.2889C105.623 20.9035 105.231 19.8394 104.446 19.0966C103.662 18.3538 102.669 17.9807 101.468 17.9807C100.287 17.9807 99.2986 18.3521 98.5057 19.0966C97.7111 19.8411 97.3138 20.9052 97.3138 22.2889V22.5946C97.3138 23.9593 97.7111 25.0182 98.5057 25.7713C99.2969 26.5245 100.285 26.9011 101.467 26.9011Z" fill="black"/>
<path d="M117.78 30.6271C116.701 30.6271 115.733 30.4388 114.878 30.0622C114.023 29.6857 113.346 29.1363 112.847 28.4126C112.348 27.6905 112.099 26.8078 112.099 25.7696C112.099 24.7314 112.348 23.8608 112.847 23.1578C113.346 22.4547 114.039 21.9261 114.925 21.5685C115.811 21.2127 116.823 21.033 117.965 21.033H122.119V20.178C122.119 19.4663 121.895 18.879 121.448 18.4212C121 17.9634 120.287 17.7337 119.309 17.7337C118.352 17.7337 117.639 17.9531 117.17 18.3901C116.702 18.8289 116.397 19.3937 116.253 20.0864L112.709 18.8945C112.954 18.1206 113.344 17.4124 113.885 16.7715C114.424 16.1306 115.148 15.6107 116.055 15.2134C116.96 14.8161 118.065 14.6174 119.369 14.6174C121.365 14.6174 122.943 15.1167 124.104 16.1151C125.265 17.1135 125.846 18.5594 125.846 20.4526V26.1047C125.846 26.7162 126.131 27.022 126.701 27.022H127.922V30.1987H125.355C124.602 30.1987 123.98 30.0156 123.491 29.6494C123.002 29.2832 122.759 28.7943 122.759 28.1828V28.1517H122.178C122.097 28.397 121.914 28.7166 121.629 29.1139C121.344 29.5112 120.895 29.8619 120.285 30.1676C119.675 30.4734 118.839 30.6271 117.78 30.6271ZM118.452 27.5126C119.532 27.5126 120.413 27.212 121.095 26.6109C121.777 26.0097 122.118 25.2117 122.118 24.2132V23.9075H118.238C117.525 23.9075 116.965 24.0595 116.557 24.3652C116.15 24.671 115.946 25.0994 115.946 25.6487C115.946 26.198 116.16 26.6471 116.587 26.9926C117.015 27.3398 117.637 27.5126 118.452 27.5126Z" fill="black"/>
<path d="M130.121 30.2004V15.0475H133.909V16.6972H134.458C134.723 16.1876 135.161 15.7454 135.771 15.3688C136.383 14.9922 137.186 14.804 138.184 14.804C139.264 14.804 140.129 15.013 140.781 15.431C141.432 15.849 141.931 16.3932 142.278 17.0651H142.828C143.173 16.4139 143.662 15.8732 144.294 15.4466C144.925 15.0182 145.821 14.8057 146.982 14.8057C147.918 14.8057 148.77 15.0043 149.534 15.4016C150.297 15.7989 150.909 16.4001 151.366 17.2033C151.824 18.0083 152.054 19.0206 152.054 20.2436V30.2039H148.205V20.52C148.205 19.6856 147.991 19.0586 147.564 18.6405C147.136 18.2225 146.535 18.0135 145.763 18.0135C144.887 18.0135 144.21 18.2933 143.731 18.853C143.253 19.4127 143.013 20.2125 143.013 21.2507V30.2021H139.164V20.5182C139.164 19.6839 138.95 19.0568 138.523 18.6388C138.095 18.2208 137.493 18.0118 136.721 18.0118C135.845 18.0118 135.168 18.2916 134.69 18.8513C134.211 19.411 133.971 20.2108 133.971 21.2489V30.2004H130.121Z" fill="black"/>
<path d="M157.525 13.2753C156.832 13.2753 156.246 13.0507 155.768 12.6033C155.289 12.1559 155.049 11.5652 155.049 10.831C155.049 10.0986 155.288 9.50781 155.768 9.05868C156.246 8.61128 156.832 8.38672 157.525 8.38672C158.236 8.38672 158.827 8.61128 159.297 9.05868C159.765 9.50608 160 10.0969 160 10.831C160 11.5652 159.765 12.1559 159.297 12.6033C158.829 13.0507 158.238 13.2753 157.525 13.2753ZM155.6 30.2005V15.0476H159.449V30.2005H155.6Z" fill="black"/>
</g>
<defs>
<clipPath id="clip0">
<rect width="160" height="42.4495" fill="white"/>
</clipPath>
</defs>
</svg>
