<svg width="57" height="36" fill="none" xmlns="http://www.w3.org/2000/svg"><path fill-rule="evenodd" clip-rule="evenodd" d="M31.27 22.936H0l22.589-21.02C24.514.123 27.28-.465 29.81.377c2.529.844 4.326 2.955 4.688 5.51l3.61 25.387c.107.758.622 1.355 1.375 1.597s1.537.06 2.095-.484l9.686-9.452H40.172l-.37-2.31H57L43.285 34.01a4.492 4.492 0 01-3.145 1.276c-.47 0-.948-.074-1.413-.223-1.616-.517-2.763-1.849-2.994-3.475L32.124 6.202c-.243-1.714-1.401-3.075-3.098-3.64-1.696-.567-3.48-.187-4.772 1.015L5.932 20.627h25l.338 2.31zm19.268-12.039h-2.175V.028h2.175l4.126 7.127h.032V.028h2.192v10.869h-2.144L50.571 3.77h-.033v7.127z" fill="#fff"/></svg>