<svg width="112" height="11" fill="none" xmlns="http://www.w3.org/2000/svg"><path d="M5.832 10.042c-.915 0-1.75-.22-2.506-.658a4.887 4.887 0 01-1.778-1.792A4.959 4.959 0 01.904 5.1c0-.905.215-1.736.644-2.492A4.855 4.855 0 013.34.816C4.096.377 4.936.158 5.86.158c.924 0 1.76.215 2.506.644a4.649 4.649 0 011.778 1.778c.43.747.644 1.577.644 2.492s-.22 1.755-.658 2.52a4.903 4.903 0 01-4.298 2.45zm0-.77a4.02 4.02 0 002.1-.56A4.084 4.084 0 009.43 7.2a4.25 4.25 0 00.546-2.128c0-.775-.177-1.475-.532-2.1a3.908 3.908 0 00-1.47-1.498C7.35 1.11 6.644.928 5.86.928c-.784 0-1.493.187-2.128.56a3.98 3.98 0 00-1.498 1.498A4.259 4.259 0 001.702 5.1c0 .775.177 1.48.532 2.114a4.118 4.118 0 001.484 1.512c.635.364 1.34.546 2.114.546zm.154-1.316c-.57 0-1.078-.121-1.526-.364a2.662 2.662 0 01-1.05-1.008A2.925 2.925 0 013.032 5.1c0-.55.126-1.04.378-1.47.252-.439.602-.78 1.05-1.022a3.152 3.152 0 011.526-.364c.523 0 .985.112 1.386.336.41.215.728.509.952.882l-1.022.672c-.29-.467-.733-.7-1.33-.7-.457 0-.84.154-1.148.462-.299.299-.448.7-.448 1.204s.15.91.448 1.218c.308.299.69.448 1.148.448.597 0 1.04-.233 1.33-.7l1.022.644c-.224.392-.541.7-.952.924-.401.215-.863.322-1.386.322zM16.588.2h1.82v8.26h5.124V10h-6.944V.2zM32.32 8.474V10h-7.35V.2h7.154v1.526H26.79v2.548h4.732v1.498H26.79v2.702h5.53zm1.21-3.094h3.85v1.456h-3.85V5.38zm10.537 4.76c-.99 0-1.886-.215-2.688-.644a4.913 4.913 0 01-1.876-1.806c-.448-.765-.672-1.629-.672-2.59 0-.961.229-1.825.686-2.59A4.811 4.811 0 0141.392.718C42.194.279 43.09.06 44.08.06c.803 0 1.535.14 2.198.42.663.28 1.223.686 1.68 1.218l-1.176 1.106c-.71-.765-1.582-1.148-2.618-1.148-.672 0-1.274.15-1.806.448-.532.29-.947.695-1.246 1.218-.299.523-.448 1.115-.448 1.778s.15 1.255.448 1.778c.298.523.714.933 1.246 1.232.532.29 1.134.434 1.806.434 1.036 0 1.908-.387 2.618-1.162l1.176 1.12a4.46 4.46 0 01-1.694 1.218c-.663.28-1.396.42-2.198.42zm10.009 0c-.999 0-1.9-.215-2.702-.644a4.886 4.886 0 01-1.89-1.806c-.458-.775-.686-1.638-.686-2.59s.228-1.81.686-2.576a4.757 4.757 0 011.89-1.806C52.175.279 53.076.06 54.075.06c.998 0 1.899.22 2.702.658a4.788 4.788 0 011.89 1.792c.457.765.686 1.629.686 2.59 0 .961-.229 1.825-.686 2.59a4.888 4.888 0 01-1.89 1.806c-.803.43-1.704.644-2.702.644zm0-1.596a3.58 3.58 0 001.764-.434c.522-.299.933-.71 1.232-1.232A3.57 3.57 0 0057.52 5.1a3.5 3.5 0 00-.448-1.764 3.129 3.129 0 00-1.232-1.232 3.492 3.492 0 00-1.764-.448c-.654 0-1.242.15-1.764.448-.523.29-.934.7-1.232 1.232a3.491 3.491 0 00-.45 1.764c0 .653.149 1.246.448 1.778.298.523.709.933 1.232 1.232a3.58 3.58 0 001.764.434zM67.694 10l-2.002-2.87c-.084.01-.21.014-.378.014h-2.212V10h-1.82V.2h4.032c.85 0 1.587.14 2.212.42.635.28 1.12.681 1.456 1.204.336.523.504 1.143.504 1.862 0 .737-.182 1.372-.546 1.904-.355.532-.868.929-1.54 1.19L69.654 10h-1.96zm-.042-6.314c0-.625-.206-1.106-.616-1.442-.41-.336-1.013-.504-1.806-.504h-2.128v3.906h2.128c.793 0 1.395-.168 1.806-.504.41-.345.616-.83.616-1.456zm5.721-1.946h-3.248V.2h8.316v1.54h-3.248V10h-1.82V1.74zm13.784 6.734V10h-7.35V.2h7.154v1.526h-5.334v2.548h4.732v1.498h-4.732v2.702h5.53zm2.558 1.624c-.318 0-.588-.107-.812-.322a1.14 1.14 0 01-.336-.84c0-.345.107-.625.322-.84.224-.215.5-.322.826-.322a1.1 1.1 0 01.812.322c.224.215.336.495.336.84 0 .336-.112.616-.336.84a1.13 1.13 0 01-.812.322zM99.153 10L97.15 7.13c-.084.01-.21.014-.378.014H94.56V10h-1.82V.2h4.032c.85 0 1.587.14 2.212.42.635.28 1.12.681 1.456 1.204.336.523.504 1.143.504 1.862 0 .737-.182 1.372-.546 1.904-.355.532-.868.929-1.54 1.19l2.254 3.22h-1.96zm-.042-6.314c0-.625-.206-1.106-.616-1.442-.41-.336-1.013-.504-1.806-.504H94.56v3.906h2.128c.793 0 1.395-.168 1.806-.504.41-.345.616-.83.616-1.456zm8.084 6.454c-1.353 0-2.408-.378-3.164-1.134-.756-.765-1.134-1.857-1.134-3.276V.2h1.82v5.46c0 1.923.831 2.884 2.492 2.884 1.652 0 2.478-.961 2.478-2.884V.2h1.792v5.53c0 1.419-.378 2.51-1.134 3.276-.747.756-1.797 1.134-3.15 1.134z" fill="#fff"/></svg>