<svg width="18" height="13" viewBox="0 0 18 13" fill="none" xmlns="http://www.w3.org/2000/svg">
<path d="M1.7561 0C0.790244 0 0 0.790244 0 1.7561V10.5366C0 11.5024 0.790244 12.2927 1.7561 12.2927H16.2439C17.2098 12.2927 18 11.5024 18 10.5366V1.7561C18 0.790244 17.2098 0 16.2439 0H1.7561ZM1.7561 0.878049H16.2439C16.3712 0.878049 16.4854 0.906591 16.5929 0.952689L9.54878 7.2439C9.21512 7.54024 8.79805 7.54024 8.46439 7.2439L1.40707 0.954886C1.51463 0.908789 1.62878 0.878049 1.7561 0.878049ZM0.884634 1.6683L5.93341 6.1683L0.974634 10.9361C0.917561 10.8176 0.878049 10.6815 0.878049 10.5388V1.75829C0.878049 1.72537 0.882439 1.69684 0.884634 1.6683ZM17.1154 1.6683C17.1176 1.69903 17.122 1.72756 17.122 1.75829V10.5388C17.122 10.6815 17.0846 10.8176 17.0254 10.9361L12.0798 6.16171L17.1154 1.6683ZM11.4212 6.75L16.2637 11.4146C16.2571 11.4146 16.2505 11.4146 16.2439 11.4146H1.7561C1.74951 11.4146 1.74293 11.4146 1.73634 11.4146L6.59195 6.75659L7.88268 7.90244C8.52585 8.47537 9.48951 8.47537 10.1327 7.90244L11.4212 6.75Z" fill="black"/>
</svg>
